<svg height='300px' width='300px'  fill="#0675dd" xmlns="http://www.w3.org/2000/svg" xmlns:xlink="http://www.w3.org/1999/xlink" version="1.1" x="0px" y="0px" viewBox="0 0 100 100" enable-background="new 0 0 100 100" xml:space="preserve"><path d="M60.369,48.236c0,4.004-25.311,4.004-25.311,0c0-6.006,5.664-10.54,12.655-10.54C54.707,37.696,60.369,42.23,60.369,48.236z  "></path><path d="M54.502,27.074c0,3.754-3.038,6.794-6.789,6.794c-3.752,0-6.79-3.04-6.79-6.794c0-3.75,3.039-6.788,6.79-6.788  C51.463,20.286,54.502,23.324,54.502,27.074z"></path><rect x="69.436" y="44.678" transform="matrix(0.7071 0.7071 -0.7071 0.7071 66.4343 -33.8544)" fill="#0675dd" width="9.294" height="37.176"></rect><path fill="#0675dd" d="M91.827,52.094l-6.572-6.572l2.629-2.629c0.726-0.726,1.903-0.726,2.629,0l3.943,3.943  c0.726,0.726,0.726,1.903,0,2.629L91.827,52.094z"></path><path fill="#0675dd" d="M62.911,81.01l-6.572-6.572l-1.314,1.314l0.017,0.017c-0.323,0.273-0.54,0.666-0.54,1.123v4.466  c0,0.822,0.666,1.489,1.489,1.489h4.466c0.456,0,0.85-0.217,1.123-0.54l0.017,0.017L62.911,81.01z"></path><path d="M87.968,60.357v28.669c0,0.678-0.551,1.229-1.229,1.229H8.687c-0.678,0-1.229-0.551-1.229-1.229V10.974  c0-0.678,0.551-1.229,1.229-1.229h78.051c0.678,0,1.229,0.551,1.229,1.229v27.622l2.458-2.458V10.974  c0-2.033-1.654-3.687-3.687-3.687H8.687C6.654,7.287,5,8.941,5,10.974v78.051c0,2.033,1.654,3.687,3.687,3.687h78.051  c2.033,0,3.687-1.654,3.687-3.687V57.898L87.968,60.357z"></path><path d="M26.405,65.877c0,0.698,0.735,1.266,1.639,1.266h31.378l2.531-2.531H28.044C27.139,64.611,26.405,65.179,26.405,65.877z"></path><path d="M26.405,73.543c0,0.698,0.735,1.266,1.639,1.266h23.711l2.531-2.531H28.044C27.139,72.278,26.405,72.845,26.405,73.543z"></path><path d="M26.405,81.21c0,0.698,0.735,1.264,1.639,1.264h23.068v-2.531H28.044C27.139,79.943,26.405,80.512,26.405,81.21z"></path></svg>