<svg height="300px" width="300px" fill="#B3B3B3" xmlns="http://www.w3.org/2000/svg" xmlns:xlink="http://www.w3.org/1999/xlink" xml:space="preserve" version="1.1" style="shape-rendering:geometricPrecision;text-rendering:geometricPrecision;image-rendering:optimizeQuality;" viewBox="0 0 463.36 463.38" x="0px" y="0px" fill-rule="evenodd" clip-rule="evenodd"><defs><style type="text/css">
   
    .fil0 {fill:#B3B3B3;fill-rule:nonzero}
   
  </style></defs><g><path class="fil0" d="M395.23 10.73l57.42 57.42c14.27,14.27 14.27,37.67 0,51.94l-308.51 308.51 -139.33 34.66c-2.82,0.7 -5.39,-1.87 -4.69,-4.69l34.66 -139.33 308.51 -308.51c14.3,-14.3 37.64,-14.3 51.94,0zm-94.32 69.73l82.02 82.01 10.77 -10.78 -82.01 -82.01 -10.78 10.78zm68.34 95.68l-82.01 -82.01 -229.44 229.44 82.01 82.02 229.44 -229.45zm-247.96 238.29l-72.34 -72.34 -23.94 96.28 96.28 -23.94zm204.06 -358.42l82.01 82.01 31.61 -31.6c6.79,-6.8 6.79,-17.8 0,-24.6l-57.42 -57.41c-6.77,-6.77 -17.83,-6.77 -24.6,0l-31.6 31.6z"/></g></svg>