<svg height='300px' width='300px'  fill="#000000" xmlns="http://www.w3.org/2000/svg" xmlns:xlink="http://www.w3.org/1999/xlink" version="1.1" x="0px" y="0px" viewBox="0 0 48 48" style="enable-background:new 0 0 48 48;" xml:space="preserve"><g><path d="M24,3C12.42,3,3,12.42,3,24c0,6.87,3.33,12.95,8.44,16.79c0.08,0.08,0.17,0.15,0.27,0.21C15.17,43.5,19.41,45,24,45   s8.83-1.5,12.29-4.01c0.11-0.05,0.2-0.12,0.27-0.21C41.67,36.95,45,30.87,45,24C45,12.42,35.58,3,24,3z M24,43   c-3.98,0-7.68-1.24-10.74-3.34C14.34,34.61,18.76,31,24,31s9.66,3.61,10.74,8.66C31.68,41.76,27.98,43,24,43z M36.46,38.31   C34.86,32.83,29.87,29,24,29s-10.86,3.83-12.46,9.31C7.54,34.83,5,29.71,5,24C5,13.52,13.52,5,24,5s19,8.52,19,19   C43,29.71,40.46,34.83,36.46,38.31z"></path><path d="M33,20c0-4.96-4.04-9-9-9s-9,4.04-9,9s4.04,9,9,9S33,24.96,33,20z M24,27c-3.86,0-7-3.14-7-7s3.14-7,7-7s7,3.14,7,7   S27.86,27,24,27z"></path></g></svg>